<svg xmlns="http://www.w3.org/2000/svg" viewBox="0 0 192 192" role="img" aria-label="Three ThemisCode blob knights in a triangle" width="1024" height="1024"><rect x="3" y="3" width="186" height="186" rx="40" fill="#24262e" /><g transform="translate(44 -3) scale(.55)"><defs><radialGradient id="honey-body" cx=".3" cy=".23" r=".82"><stop stop-color="#fff0ae" /><stop offset=".6" stop-color="#eac660" /><stop offset="1" stop-color="#b1893b" /></radialGradient><linearGradient id="honey-metal" x2=".8" y2="1"><stop stop-color="#edf1f6" /><stop offset=".4" stop-color="#bcc8d5" /><stop offset="1" stop-color="#4d5b6c" /></linearGradient></defs><ellipse cx="94" cy="177" rx="49" ry="5" fill="#667383" opacity=".12" /><g class="blob" stroke-linecap="round" stroke-linejoin="round"><g class="head"><path d="M34 109C30 68 50 41 88 39C129 34 150 68 151 107C154 144 130 165 93 166C55 167 35 147 34 109Z" fill="url(#honey-body)" /><path d="M46 108Q44 84 54 73" fill="none" stroke="#fff0ae" stroke-width="3" opacity=".55" /><path d="M89 39V24Q96 16 103 24V39" fill="#f1e3bc" /><path d="M48 68Q48 40 91 36Q135 38 137 68Q94 53 48 68Z" fill="url(#honey-metal)" /><path d="M49 68Q93 51 137 68" fill="none" stroke="#f1e3bc" stroke-width="4" /><path d="M92 35V58" stroke="#f4f7fb" opacity=".5" stroke-width="2" /><path d="M64 49Q72 42 81 42" fill="none" stroke="#fff" opacity=".65" stroke-width="2" /><path d="M49 56Q29 52 31 36L52 47M134 56Q154 52 152 36L131 47" fill="url(#honey-metal)" stroke="#e6b84f" stroke-width="1.5" /><g class="gaze"><g class="eyes" fill="#28303c" stroke="#28303c"><path d="M73 97Q79 87 85 97M99 97Q105 87 111 97" stroke-width="4" fill="none" /></g></g></g><path d="M131 117L156 125V143Q154 162 131 173Q108 162 106 143V125Z" fill="url(#honey-metal)" stroke="#f1e3bc" stroke-width="3" /><path d="M113 130V140" stroke="#fff" opacity=".5" stroke-width="2" /><g class="scales" fill="none" stroke="#E6B84F" stroke-width="1.8"><path d="M131 131V154M124 155H138M119 136H143" /><path d="M122 136L117 145H127Z" /><path d="M140 136L135 145H145Z" /><circle cx="131" cy="131" r="2" fill="#F9D987" stroke="none" /></g></g></g><g transform="translate(4 66) scale(.55)"><defs><radialGradient id="pearl-body" cx=".3" cy=".23" r=".82"><stop stop-color="#fffaf0" /><stop offset=".6" stop-color="#e3d9c5" /><stop offset="1" stop-color="#afa58f" /></radialGradient><linearGradient id="pearl-metal" x2=".8" y2="1"><stop stop-color="#edf1f6" /><stop offset=".4" stop-color="#a7afbb" /><stop offset="1" stop-color="#4d5b6c" /></linearGradient></defs><ellipse cx="94" cy="177" rx="49" ry="5" fill="#667383" opacity=".12" /><g class="blob" stroke-linecap="round" stroke-linejoin="round"><g class="head"><path d="M34 109C30 68 50 41 88 39C129 34 150 68 151 107C154 144 130 165 93 166C55 167 35 147 34 109Z" fill="url(#pearl-body)" /><path d="M46 108Q44 84 54 73" fill="none" stroke="#fffaf0" stroke-width="3" opacity=".55" /><path d="M49 68Q50 36 91 33Q133 31 137 68Q94 50 49 68Z" fill="url(#pearl-metal)" /><path d="M49 68Q93 51 137 68" fill="none" stroke="#e3b65c" stroke-width="4" /><path d="M92 35V58" stroke="#f4f7fb" opacity=".5" stroke-width="2" /><path d="M64 49Q72 42 81 42" fill="none" stroke="#fff" opacity=".65" stroke-width="2" /><path d="M92 58V79" stroke="url(#pearl-metal)" stroke-width="7" /><g class="gaze"><g class="eyes" fill="#28303c" stroke="#28303c"><ellipse cx="79" cy="94" rx="5" ry="9" /><ellipse cx="105" cy="94" rx="5" ry="9" /></g></g></g><path d="M131 117L156 125V143Q154 162 131 173Q108 162 106 143V125Z" fill="url(#pearl-metal)" stroke="#e3b65c" stroke-width="3" /><path d="M113 130V140" stroke="#fff" opacity=".5" stroke-width="2" /><g class="scales" fill="none" stroke="#E6B84F" stroke-width="1.8"><path d="M131 131V154M124 155H138M119 136H143" /><path d="M122 136L117 145H127Z" /><path d="M140 136L135 145H145Z" /><circle cx="131" cy="131" r="2" fill="#F9D987" stroke="none" /></g></g></g><g transform="translate(82 66) scale(.55)"><defs><radialGradient id="ink-body" cx=".3" cy=".23" r=".82"><stop stop-color="#79808c" /><stop offset=".6" stop-color="#363b47" /><stop offset="1" stop-color="#161a22" /></radialGradient><linearGradient id="ink-metal" x2=".8" y2="1"><stop stop-color="#edf1f6" /><stop offset=".4" stop-color="#656d7b" /><stop offset="1" stop-color="#4d5b6c" /></linearGradient></defs><ellipse cx="94" cy="177" rx="49" ry="5" fill="#667383" opacity=".12" /><g class="blob" stroke-linecap="round" stroke-linejoin="round"><g class="head"><path d="M34 109C30 68 50 41 88 39C129 34 150 68 151 107C154 144 130 165 93 166C55 167 35 147 34 109Z" fill="url(#ink-body)" /><path d="M46 108Q44 84 54 73" fill="none" stroke="#79808c" stroke-width="3" opacity=".55" /><path d="M48 68L53 44Q92 24 130 43L137 68Q94 52 48 68Z" fill="url(#ink-metal)" /><path d="M49 68Q93 51 137 68" fill="none" stroke="#b9d8f4" stroke-width="4" /><path d="M92 35V58" stroke="#f4f7fb" opacity=".5" stroke-width="2" /><path d="M64 49Q72 42 81 42" fill="none" stroke="#fff" opacity=".65" stroke-width="2" /><path d="M54 53H130M57 60H127" stroke="#435163" opacity=".55" stroke-width="2" /><g class="gaze"><g class="eyes" fill="#e5effa" stroke="#e5effa"><path d="M74 94H84M100 94H110" stroke-width="6" /></g></g></g><path d="M131 116A28 28 0 1 1 130.99 116Z" fill="url(#ink-metal)" stroke="#b9d8f4" stroke-width="3" /><path d="M113 130V140" stroke="#fff" opacity=".5" stroke-width="2" /><g class="scales" fill="none" stroke="#E6B84F" stroke-width="1.8"><path d="M131 131V154M124 155H138M119 136H143" /><path d="M122 136L117 145H127Z" /><path d="M140 136L135 145H145Z" /><circle cx="131" cy="131" r="2" fill="#F9D987" stroke="none" /></g></g></g></svg>